<svg id="visual" viewBox="0 0 960 300" width="960" height="300" xmlns="http://www.w3.org/2000/svg" xmlns:xlink="http://www.w3.org/1999/xlink" version="1.1"><path d="M0 161L137 177L274 177L411 170L549 184L686 210L823 205L960 183L960 0L823 0L686 0L549 0L411 0L274 0L137 0L0 0Z" fill="#fd7200"></path><path d="M0 150L137 161L274 198L411 156L549 144L686 196L823 190L960 190L960 0L823 0L686 0L549 0L411 0L274 0L137 0L0 0Z" fill="#f19700"></path><path d="M0 131L137 126L274 98L411 123L549 134L686 118L823 143L960 141L960 0L823 0L686 0L549 0L411 0L274 0L137 0L0 0Z" fill="#e1b600"></path><path d="M0 93L137 89L274 106L411 79L549 78L686 99L823 58L960 95L960 0L823 0L686 0L549 0L411 0L274 0L137 0L0 0Z" fill="#ccd31b"></path><path d="M0 42L137 37L274 26L411 52L549 49L686 41L823 39L960 51L960 0L823 0L686 0L549 0L411 0L274 0L137 0L0 0Z" fill="#adee45"></path></svg>